<svg width="18" height="18" viewBox="0 0 18 18" fill="none" xmlns="http://www.w3.org/2000/svg">
<path fill-rule="evenodd" clip-rule="evenodd" d="M6.13683 14.1843C5.93302 15.1515 6.56035 16.1562 7.47744 16.4675C7.92232 16.6312 8.39319 16.5946 8.78544 16.4597C9.17644 16.3253 9.55056 16.0724 9.78245 15.7252L9.78311 15.7242L12.0113 12.4091C12.0935 12.6739 12.229 12.9122 12.4398 13.1068C12.8422 13.4782 13.397 13.5747 13.9651 13.5747H14.7151C15.2832 13.5747 15.838 13.4782 16.2404 13.1068C16.6538 12.7251 16.7776 12.1756 16.7776 11.5872V4.23721C16.7776 3.64882 16.6538 3.09929 16.2404 2.71763C15.838 2.34618 15.2832 2.24971 14.7151 2.24971H13.9651C13.397 2.24971 12.8422 2.34618 12.4398 2.71763C12.2678 2.87643 12.1459 3.0643 12.0622 3.27193L10.4336 2.0111C10.1859 1.77829 9.84895 1.64038 9.56337 1.55878C9.25263 1.47 8.91941 1.42464 8.64009 1.42464H5.79008C5.20526 1.42464 4.62235 1.64107 4.1548 1.98318C3.69235 2.32156 3.30418 2.81178 3.1498 3.40447L1.35782 8.8551C1.11793 9.5332 1.2026 10.2176 1.58724 10.7396C1.97058 11.2598 2.6004 11.5496 3.31509 11.5496H6.31509C6.38247 11.5496 6.4338 11.5769 6.46518 11.6124C6.49223 11.6431 6.52281 11.7005 6.50865 11.8047L6.13683 14.1843ZM11.9026 4.57109L9.69255 2.8601L9.66734 2.83489C9.61735 2.7849 9.48234 2.70565 9.25431 2.6405C9.04004 2.57928 8.81076 2.54964 8.64009 2.54964H5.79008C5.47491 2.54964 5.12031 2.67071 4.81912 2.89109C4.51833 3.11118 4.31024 3.40079 4.23579 3.69857L4.23083 3.7184L2.42222 9.2196L2.41982 9.22633C2.28783 9.59589 2.35392 9.88356 2.49293 10.0722C2.63459 10.2645 2.90477 10.4246 3.31509 10.4246H6.31509C7.0976 10.4246 7.74672 11.0932 7.62193 11.9667L7.62089 11.974L7.24308 14.3917L7.23919 14.4092C7.15619 14.7827 7.42144 15.263 7.84296 15.4035L7.85284 15.4068L7.86259 15.4105C8.01482 15.4675 8.21488 15.4662 8.41973 15.3958C8.62836 15.3241 8.77889 15.2024 8.84706 15.1001L8.84824 15.0984L11.9026 10.5541V4.57109ZM15.6526 11.5872C15.6526 12.0488 15.5513 12.2118 15.4773 12.2801C15.3922 12.3587 15.197 12.4497 14.7151 12.4497H13.9651C13.4832 12.4497 13.288 12.3587 13.2029 12.2801C13.1288 12.2118 13.0276 12.0488 13.0276 11.5872V4.23721C13.0276 3.77559 13.1288 3.61263 13.2029 3.54428C13.288 3.46574 13.4832 3.37471 13.9651 3.37471H14.7151C15.197 3.37471 15.3922 3.46574 15.4773 3.54428C15.5513 3.61263 15.6526 3.77559 15.6526 4.23721V11.5872Z" fill="#82868C"/>
</svg>
