<svg width="18" height="18" viewBox="0 0 18 18" fill="none" xmlns="http://www.w3.org/2000/svg">
<path d="M12.75 10.125C12.1287 10.125 11.625 9.62132 11.625 9C11.625 8.37868 12.1287 7.875 12.75 7.875C13.3713 7.875 13.875 8.37868 13.875 9C13.875 9.62132 13.3713 10.125 12.75 10.125Z" fill="#51565E"/>
<path d="M9 10.125C8.37868 10.125 7.875 9.62132 7.875 9C7.875 8.37868 8.37868 7.875 9 7.875C9.62132 7.875 10.125 8.37868 10.125 9C10.125 9.62132 9.62132 10.125 9 10.125Z" fill="#51565E"/>
<path d="M5.25 10.125C4.62868 10.125 4.125 9.62132 4.125 9C4.125 8.37868 4.62868 7.875 5.25 7.875C5.87132 7.875 6.375 8.37868 6.375 9C6.375 9.62132 5.87132 10.125 5.25 10.125Z" fill="#51565E"/>
</svg>
