<svg width="18" height="18" viewBox="0 0 18 18" fill="none" xmlns="http://www.w3.org/2000/svg">
<path fill-rule="evenodd" clip-rule="evenodd" d="M11.8632 3.81572C12.067 2.84852 11.4397 1.84382 10.5226 1.53251C10.0777 1.3688 9.60681 1.40545 9.21456 1.54029C8.82356 1.67469 8.44944 1.92761 8.21755 2.27485L8.21689 2.27584L5.98871 5.59092C5.90654 5.32611 5.77103 5.08784 5.56019 4.89322C5.15779 4.52176 4.60302 4.42529 4.03491 4.42529H3.28491C2.7168 4.42529 2.16204 4.52176 1.75963 4.89322C1.34617 5.27487 1.22241 5.82441 1.22241 6.41279V13.7628C1.22241 14.3512 1.34617 14.9007 1.75963 15.2824C2.16204 15.6538 2.7168 15.7503 3.28491 15.7503H4.03491C4.60302 15.7503 5.15779 15.6538 5.56019 15.2824C5.73223 15.1236 5.85411 14.9357 5.93779 14.7281L7.56636 15.9889C7.81412 16.2217 8.15105 16.3596 8.43663 16.4412C8.74737 16.53 9.08059 16.5754 9.35991 16.5754H12.2099C12.7947 16.5754 13.3776 16.3589 13.8452 16.0168C14.3076 15.6784 14.6958 15.1882 14.8502 14.5955L16.6422 9.1449C16.8821 8.4668 16.7974 7.78244 16.4128 7.26044C16.0294 6.74019 15.3996 6.45036 14.6849 6.45036H11.6849C11.6175 6.45036 11.5662 6.42313 11.5348 6.38757C11.5078 6.35691 11.4772 6.29948 11.4914 6.19532L11.8632 3.81572ZM6.09741 13.4289L8.30745 15.1399L8.33266 15.1651C8.38265 15.2151 8.51766 15.2944 8.74569 15.3595C8.95996 15.4207 9.18924 15.4504 9.35991 15.4504H12.2099C12.5251 15.4504 12.8797 15.3293 13.1809 15.1089C13.4817 14.8888 13.6898 14.5992 13.7642 14.3014L13.7692 14.2816L15.5778 8.7804L15.5802 8.77367C15.7122 8.40411 15.6461 8.11644 15.5071 7.92779C15.3654 7.73553 15.0952 7.57536 14.6849 7.57536H11.6849C10.9024 7.57536 10.2533 6.90681 10.3781 6.03331L10.3791 6.02602L10.7569 3.60832L10.7608 3.59084C10.8438 3.21732 10.5786 2.737 10.157 2.5965L10.1472 2.5932L10.1374 2.58955C9.98518 2.53246 9.78512 2.53377 9.58027 2.60418C9.37164 2.6759 9.22111 2.79763 9.15294 2.89988L9.15176 2.90165L6.09741 7.44592V13.4289ZM2.34741 6.41279C2.34741 5.95118 2.44866 5.78821 2.52269 5.71987C2.60779 5.64132 2.80303 5.55029 3.28491 5.55029H4.03491C4.5168 5.55029 4.71204 5.64132 4.79713 5.71987C4.87117 5.78821 4.97241 5.95118 4.97241 6.41279V13.7628C4.97241 14.2244 4.87117 14.3874 4.79713 14.4557C4.71204 14.5343 4.5168 14.6253 4.03491 14.6253H3.28491C2.80303 14.6253 2.60779 14.5343 2.52269 14.4557C2.44866 14.3874 2.34741 14.2244 2.34741 13.7628V6.41279Z" fill="#82868C"/>
</svg>
