<svg width="40" height="40" viewBox="0 0 40 40" fill="none" xmlns="http://www.w3.org/2000/svg">
<path d="M20 28.9167C21.5004 28.9167 22.7167 27.7004 22.7167 26.2001C22.7167 24.6997 21.5004 23.4834 20 23.4834C18.4996 23.4834 17.2833 24.6997 17.2833 26.2001C17.2833 27.7004 18.4996 28.9167 20 28.9167Z" fill="#51565E"/>
<path d="M30.4666 15.883V13.7997C30.4666 9.29967 29.3833 3.33301 20 3.33301C10.6166 3.33301 9.53331 9.29967 9.53331 13.7997V15.883C4.86665 16.4663 3.33331 18.833 3.33331 24.6497V27.7497C3.33331 34.583 5.41665 36.6663 12.25 36.6663H27.75C34.5833 36.6663 36.6666 34.583 36.6666 27.7497V24.6497C36.6666 18.833 35.1333 16.4663 30.4666 15.883ZM20 31.233C17.2166 31.233 14.9666 28.9663 14.9666 26.1997C14.9666 23.4163 17.2333 21.1663 20 21.1663C22.7666 21.1663 25.0333 23.433 25.0333 26.1997C25.0333 28.983 22.7833 31.233 20 31.233ZM12.25 15.733C12.1166 15.733 12 15.733 11.8666 15.733V13.7997C11.8666 8.91634 13.25 5.66634 20 5.66634C26.75 5.66634 28.1333 8.91634 28.1333 13.7997V15.7497C28 15.7497 27.8833 15.7497 27.75 15.7497H12.25V15.733Z" fill="#51565E"/>
</svg>
