<svg width="20" height="20" viewBox="0 0 20 20" fill="none" xmlns="http://www.w3.org/2000/svg">
<g clip-path="url(#clip0)">
<path d="M17.0187 17.0194H14.0591V12.3844C14.0591 11.2792 14.0393 9.85641 12.5197 9.85641C10.9782 9.85641 10.7424 11.0606 10.7424 12.304V17.0191H7.78272V7.48775H10.624V8.79031H10.6638C10.9481 8.30414 11.359 7.90419 11.8527 7.63306C12.3463 7.36194 12.9043 7.22978 13.4671 7.25067C16.4669 7.25067 17.02 9.22378 17.02 11.7907L17.0187 17.0194ZM4.44325 6.18489C4.10356 6.18495 3.77146 6.08428 3.48898 5.89561C3.2065 5.70693 2.98633 5.43873 2.85628 5.12492C2.72623 4.8111 2.69215 4.46577 2.75836 4.13259C2.82457 3.79941 2.9881 3.49335 3.22826 3.25311C3.46841 3.01286 3.77442 2.84923 4.10757 2.7829C4.44073 2.71657 4.78607 2.75052 5.09993 2.88046C5.41379 3.0104 5.68207 3.23049 5.87084 3.5129C6.05962 3.79531 6.16041 4.12736 6.16047 4.46705C6.16051 4.6926 6.11612 4.91595 6.02984 5.12435C5.94357 5.33274 5.8171 5.5221 5.65764 5.68162C5.49819 5.84113 5.30886 5.96768 5.10049 6.05403C4.89213 6.14038 4.6688 6.18485 4.44325 6.18489ZM5.92308 17.0194H2.96034V7.48775H5.92308V17.0194ZM18.4942 0.00136088H1.47312C1.08679 -0.00299887 0.714512 0.146198 0.438127 0.416165C0.161743 0.686133 0.00386047 1.05478 -0.000854492 1.44111V18.5328C0.00369909 18.9193 0.161489 19.2883 0.437864 19.5585C0.714239 19.8287 1.0866 19.9782 1.47312 19.9741H18.4942C18.8815 19.979 19.2549 19.8299 19.5324 19.5597C19.8098 19.2894 19.9687 18.9201 19.9741 18.5328V1.43988C19.9685 1.05278 19.8096 0.683714 19.5321 0.413753C19.2546 0.143792 18.8813 -0.00497811 18.4942 0.000127187" fill="#0A66C2"/>
</g>
<defs>
<clipPath id="clip0">
<rect width="20" height="20" fill="white"/>
</clipPath>
</defs>
</svg>
