<svg width="20" height="20" viewBox="0 0 20 20" fill="none" xmlns="http://www.w3.org/2000/svg">
<path d="M17.8992 5.8566C17.9113 6.03389 17.9113 6.21117 17.9113 6.3901C17.9113 11.8419 13.8146 18.1295 6.32343 18.1295V18.1262C4.11053 18.1295 1.94359 17.4873 0.0806885 16.2765C0.402463 16.3158 0.72585 16.3354 1.05004 16.3362C2.88391 16.3378 4.66537 15.7144 6.10811 14.5666C4.36537 14.5331 2.83714 13.3819 2.30327 11.7014C2.91375 11.8207 3.54279 11.7961 4.14198 11.6303C2.24198 11.2414 0.875043 9.55023 0.875043 7.58617C0.875043 7.5682 0.875043 7.55104 0.875043 7.53389C1.44117 7.85333 2.07504 8.03062 2.72343 8.05023C0.933914 6.83863 0.382301 4.42686 1.46295 2.54124C3.53069 5.11885 6.5815 6.68585 9.8565 6.8517C9.52827 5.41869 9.97666 3.91706 11.0347 2.9097C12.675 1.34761 15.2549 1.42768 16.7968 3.08863C17.7089 2.90644 18.5831 2.56738 19.3831 2.08699C19.0791 3.04206 18.4428 3.85333 17.5928 4.36885C18.4 4.27245 19.1888 4.05349 19.9315 3.71934C19.3847 4.54941 18.696 5.27245 17.8992 5.8566Z" fill="#1D9BF0"/>
</svg>
