<svg width="20" height="20" viewBox="0 0 20 20" fill="none" xmlns="http://www.w3.org/2000/svg">
<path d="M0 9.58333C0 5.066 0 2.80667 1.40333 1.40333C2.80667 0 5.06667 0 9.58333 0H10.4167C14.934 0 17.1933 0 18.5967 1.40333C20 2.80667 20 5.06667 20 9.58333V10.4167C20 14.934 20 17.1933 18.5967 18.5967C17.1933 20 14.9333 20 10.4167 20H9.58333C5.066 20 2.80667 20 1.40333 18.5967C0 17.1933 0 14.9333 0 10.4167V9.58333Z" fill="#2787F5"/>
<path fill-rule="evenodd" clip-rule="evenodd" d="M5.41668 6.25H3.95868C3.54201 6.25 3.45868 6.446 3.45868 6.66267C3.45868 7.04867 3.95268 8.96467 5.76068 11.498C6.96535 13.2287 8.66335 14.1667 10.208 14.1667C11.1353 14.1667 11.25 13.958 11.25 13.6V12.292C11.25 11.8753 11.338 11.792 11.6313 11.792C11.848 11.792 12.218 11.9 13.084 12.734C14.0727 13.7233 14.2353 14.1667 14.7913 14.1667H16.25C16.6667 14.1667 16.8753 13.958 16.7547 13.5467C16.6233 13.1373 16.1513 12.5427 15.5247 11.838C15.1847 11.4367 14.6753 11.004 14.5207 10.7873C14.304 10.5093 14.366 10.386 14.5207 10.1387C14.5207 10.1387 16.2973 7.636 16.4827 6.786C16.576 6.47733 16.4827 6.25 16.0413 6.25H14.5833C14.2127 6.25 14.0413 6.446 13.9487 6.66267C13.9487 6.66267 13.2073 8.47 12.1567 9.644C11.8167 9.984 11.662 10.0927 11.4767 10.0927C11.384 10.0927 11.25 9.984 11.25 9.67533V6.786C11.25 6.41533 11.1427 6.25 10.8333 6.25H8.54135C8.31001 6.25 8.17068 6.422 8.17068 6.58533C8.17068 6.93667 8.69601 7.018 8.75001 8.00667V10.154C8.75001 10.6253 8.66535 10.7107 8.47935 10.7107C7.98535 10.7107 6.78268 8.89467 6.06935 6.81733C5.92935 6.41333 5.78935 6.25 5.41668 6.25Z" fill="white"/>
</svg>
