<svg width="32" height="32" viewBox="0 0 32 32" fill="none" xmlns="http://www.w3.org/2000/svg">
<path opacity="0.5" d="M32 16C32 24.8366 24.8366 32 16 32C7.16344 32 0 24.8366 0 16C0 7.16344 7.16344 0 16 0C24.8366 0 32 7.16344 32 16Z" fill="#E6E7E8"/>
<path fill-rule="evenodd" clip-rule="evenodd" d="M14.4697 10.8496C14.7626 10.5567 15.2374 10.5567 15.5303 10.8496L19.3337 14.6529C20.0757 15.3949 20.0757 16.6048 19.3337 17.3469L15.5303 21.1502C15.2374 21.4431 14.7626 21.4431 14.4697 21.1502C14.1768 20.8573 14.1768 20.3824 14.4697 20.0896L18.273 16.2862C18.4293 16.1299 18.4293 15.8698 18.273 15.7135L14.4697 11.9102C14.1768 11.6173 14.1768 11.1424 14.4697 10.8496Z" fill="#4290FC"/>
</svg>
