<svg width="48" height="48" viewBox="0 0 48 48" fill="none" xmlns="http://www.w3.org/2000/svg">
<path d="M0 8C0 4.22876 0 2.34315 1.17157 1.17157C2.34315 0 4.22876 0 8 0H40C43.7712 0 45.6569 0 46.8284 1.17157C48 2.34315 48 4.22876 48 8V40C48 43.7712 48 45.6569 46.8284 46.8284C45.6569 48 43.7712 48 40 48H8C4.22876 48 2.34315 48 1.17157 46.8284C0 45.6569 0 43.7712 0 40V8Z" fill="#F7F7F8"/>
<path fill-rule="evenodd" clip-rule="evenodd" d="M27.7071 15.373C28.0976 15.7635 28.0976 16.3967 27.7071 16.7872L21.1871 23.3072C20.8076 23.6867 20.8076 24.3135 21.1871 24.693L27.7071 31.213C28.0976 31.6035 28.0976 32.2367 27.7071 32.6272C27.3166 33.0177 26.6834 33.0177 26.2929 32.6272L19.7729 26.1072C18.6124 24.9467 18.6124 23.0535 19.7729 21.893L26.2929 15.373C26.6834 14.9824 27.3166 14.9824 27.7071 15.373Z" fill="#51565E"/>
</svg>
