<svg width="16" height="16" viewBox="0 0 16 16" fill="none" xmlns="http://www.w3.org/2000/svg">
<path fill-rule="evenodd" clip-rule="evenodd" d="M8.00002 2.00033C4.68821 2.00033 2.00002 4.68852 2.00002 8.00033C2.00002 11.3121 4.68821 14.0003 8.00002 14.0003C11.3118 14.0003 14 11.3121 14 8.00033C14 4.68852 11.3118 2.00033 8.00002 2.00033ZM0.666687 8.00033C0.666687 3.95214 3.95183 0.666992 8.00002 0.666992C12.0482 0.666992 15.3334 3.95214 15.3334 8.00033C15.3334 12.0485 12.0482 15.3337 8.00002 15.3337C3.95183 15.3337 0.666687 12.0485 0.666687 8.00033Z" fill="#CDCFD1"/>
<path fill-rule="evenodd" clip-rule="evenodd" d="M7.75334 4.34033C8.12153 4.34033 8.42001 4.6388 8.42001 5.00699V7.74032C8.42001 7.80681 8.44768 7.92686 8.52412 8.0609C8.60059 8.19498 8.68979 8.27983 8.74654 8.31346L8.74832 8.31451L10.815 9.54785C11.1312 9.73653 11.2345 10.1458 11.0458 10.462C10.8571 10.7781 10.4479 10.8815 10.1317 10.6928L8.06681 9.46052C8.06645 9.46031 8.06609 9.46009 8.06573 9.45988C7.763 9.28016 7.52591 9.002 7.36589 8.72142C7.20567 8.44046 7.08668 8.09384 7.08668 7.74032V5.00699C7.08668 4.6388 7.38515 4.34033 7.75334 4.34033Z" fill="#CDCFD1"/>
</svg>
