<svg width="16" height="16" viewBox="0 0 16 16" fill="none" xmlns="http://www.w3.org/2000/svg">
<path fill-rule="evenodd" clip-rule="evenodd" d="M7.99999 6.3638C7.0942 6.3638 6.36332 7.09468 6.36332 8.00047C6.36332 8.90626 7.0942 9.63714 7.99999 9.63714C8.90578 9.63714 9.63666 8.90626 9.63666 8.00047C9.63666 7.09468 8.90578 6.3638 7.99999 6.3638ZM4.86332 8.00047C4.86332 6.26626 6.26578 4.8638 7.99999 4.8638C9.7342 4.8638 11.1367 6.26626 11.1367 8.00047C11.1367 9.73468 9.7342 11.1371 7.99999 11.1371C6.26578 11.1371 4.86332 9.73468 4.86332 8.00047Z" fill="#CDCFD1"/>
<path fill-rule="evenodd" clip-rule="evenodd" d="M1.29418 5.8641C2.92177 3.30573 5.32871 1.73047 8.00002 1.73047C10.6715 1.73047 13.0786 3.30593 14.7062 5.86459C15.1011 6.48392 15.2734 7.26328 15.2734 7.99714C15.2734 8.73119 15.101 9.51077 14.7059 10.1302C13.0783 12.6885 10.6713 14.2638 8.00002 14.2638C5.32854 14.2638 2.92146 12.6883 1.29387 10.1297C0.898896 9.51035 0.726685 8.73099 0.726685 7.99714C0.726685 7.26308 0.898987 6.4835 1.29418 5.8641ZM8.00002 3.23047C5.96483 3.23047 3.98525 4.42834 2.5595 6.66968L2.55888 6.67066C2.35429 6.99118 2.22668 7.47138 2.22668 7.99714C2.22668 8.52289 2.35429 9.00309 2.55888 9.32361L2.5595 9.32459C3.98525 11.5659 5.96483 12.7638 8.00002 12.7638C10.0352 12.7638 12.0148 11.5659 13.4405 9.32459L13.4412 9.32361C13.6457 9.00309 13.7734 8.52289 13.7734 7.99714C13.7734 7.47138 13.6457 6.99118 13.4412 6.67066L13.4405 6.66968C12.0148 4.42834 10.0352 3.23047 8.00002 3.23047Z" fill="#CDCFD1"/>
</svg>
