<svg width="142" height="48" viewBox="0 0 142 48" fill="none" xmlns="http://www.w3.org/2000/svg">
<path fill-rule="evenodd" clip-rule="evenodd" d="M138 1H48V47H138C139.657 47 141 45.6569 141 44V4C141 2.34315 139.657 1 138 1ZM47 0V48H138C140.209 48 142 46.2091 142 44V4C142 1.79086 140.209 0 138 0H47Z" fill="#DADBDD"/>
<path d="M67.686 18H69.954V30.474H67.686V24.948H62.268V30.474H60V18H62.268V22.986H67.686V18Z" fill="#373D46"/>
<path d="M81.3435 25.758C81.3435 26.502 81.2355 27.18 81.0195 27.792C80.8035 28.404 80.4975 28.926 80.1015 29.358C79.7055 29.79 79.2255 30.126 78.6615 30.366C78.1095 30.606 77.4975 30.726 76.8255 30.726C76.1535 30.726 75.5415 30.606 74.9895 30.366C74.4375 30.126 73.9635 29.79 73.5675 29.358C73.1715 28.926 72.8595 28.404 72.6315 27.792C72.4155 27.18 72.3075 26.502 72.3075 25.758C72.3075 25.014 72.4155 24.342 72.6315 23.742C72.8595 23.13 73.1715 22.608 73.5675 22.176C73.9755 21.744 74.4555 21.414 75.0075 21.186C75.5595 20.946 76.1655 20.826 76.8255 20.826C77.4855 20.826 78.0915 20.946 78.6435 21.186C79.2075 21.414 79.6875 21.744 80.0835 22.176C80.4795 22.608 80.7855 23.13 81.0015 23.742C81.2295 24.342 81.3435 25.014 81.3435 25.758ZM79.1115 25.758C79.1115 24.822 78.9075 24.084 78.4995 23.544C78.1035 22.992 77.5455 22.716 76.8255 22.716C76.1055 22.716 75.5415 22.992 75.1335 23.544C74.7375 24.084 74.5395 24.822 74.5395 25.758C74.5395 26.706 74.7375 27.456 75.1335 28.008C75.5415 28.56 76.1055 28.836 76.8255 28.836C77.5455 28.836 78.1035 28.56 78.4995 28.008C78.9075 27.456 79.1115 26.706 79.1115 25.758Z" fill="#373D46"/>
<path d="M87.3313 30.654C86.9833 30.654 86.6293 30.642 86.2693 30.618C85.9093 30.594 85.5613 30.564 85.2253 30.528C84.9013 30.492 84.5953 30.456 84.3073 30.42C84.0193 30.372 83.7793 30.324 83.5873 30.276V21.186C83.7793 21.138 84.0193 21.096 84.3073 21.06C84.5953 21.012 84.9013 20.976 85.2253 20.952C85.5613 20.916 85.9093 20.892 86.2693 20.88C86.6293 20.856 86.9833 20.844 87.3313 20.844C88.6033 20.844 89.5933 21.078 90.3013 21.546C91.0093 22.002 91.3633 22.644 91.3633 23.472C91.3633 23.904 91.2553 24.288 91.0393 24.624C90.8233 24.96 90.5413 25.212 90.1933 25.38C90.6253 25.548 90.9973 25.812 91.3093 26.172C91.6213 26.532 91.7773 27.042 91.7773 27.702C91.7773 28.65 91.4053 29.382 90.6613 29.898C89.9173 30.402 88.8073 30.654 87.3313 30.654ZM87.3853 24.84C87.9253 24.84 88.3693 24.762 88.7173 24.606C89.0773 24.45 89.2573 24.138 89.2573 23.67C89.2573 23.442 89.1973 23.256 89.0773 23.112C88.9693 22.968 88.8193 22.854 88.6273 22.77C88.4353 22.686 88.2133 22.632 87.9613 22.608C87.7093 22.572 87.4453 22.554 87.1693 22.554C86.9533 22.554 86.7013 22.56 86.4133 22.572C86.1373 22.584 85.9153 22.602 85.7473 22.626V24.84H87.3853ZM85.7473 28.854C85.8913 28.878 86.1253 28.902 86.4493 28.926C86.7853 28.938 87.0973 28.944 87.3853 28.944C88.0333 28.944 88.5673 28.854 88.9873 28.674C89.4193 28.494 89.6353 28.152 89.6353 27.648C89.6353 27.156 89.4373 26.82 89.0413 26.64C88.6573 26.448 88.1533 26.352 87.5293 26.352H85.7473V28.854Z" fill="#373D46"/>
<path d="M102.349 25.758C102.349 26.502 102.241 27.18 102.025 27.792C101.809 28.404 101.503 28.926 101.107 29.358C100.711 29.79 100.231 30.126 99.6674 30.366C99.1154 30.606 98.5034 30.726 97.8314 30.726C97.1594 30.726 96.5474 30.606 95.9954 30.366C95.4434 30.126 94.9694 29.79 94.5734 29.358C94.1774 28.926 93.8654 28.404 93.6374 27.792C93.4214 27.18 93.3134 26.502 93.3134 25.758C93.3134 25.014 93.4214 24.342 93.6374 23.742C93.8654 23.13 94.1774 22.608 94.5734 22.176C94.9814 21.744 95.4614 21.414 96.0134 21.186C96.5654 20.946 97.1714 20.826 97.8314 20.826C98.4914 20.826 99.0974 20.946 99.6494 21.186C100.213 21.414 100.693 21.744 101.089 22.176C101.485 22.608 101.791 23.13 102.007 23.742C102.235 24.342 102.349 25.014 102.349 25.758ZM100.117 25.758C100.117 24.822 99.9134 24.084 99.5054 23.544C99.1094 22.992 98.5514 22.716 97.8314 22.716C97.1114 22.716 96.5474 22.992 96.1394 23.544C95.7434 24.084 95.5454 24.822 95.5454 25.758C95.5454 26.706 95.7434 27.456 96.1394 28.008C96.5474 28.56 97.1114 28.836 97.8314 28.836C98.5514 28.836 99.1094 28.56 99.5054 28.008C99.9134 27.456 100.117 26.706 100.117 25.758Z" fill="#373D46"/>
<path d="M104.071 25.776C104.071 25.08 104.179 24.432 104.395 23.832C104.611 23.22 104.917 22.692 105.313 22.248C105.721 21.804 106.213 21.456 106.789 21.204C107.365 20.952 108.013 20.826 108.733 20.826C109.621 20.826 110.461 20.988 111.253 21.312L110.785 23.094C110.533 22.986 110.245 22.896 109.921 22.824C109.609 22.752 109.273 22.716 108.913 22.716C108.061 22.716 107.413 22.986 106.969 23.526C106.525 24.054 106.303 24.804 106.303 25.776C106.303 26.712 106.513 27.456 106.933 28.008C107.353 28.548 108.061 28.818 109.057 28.818C109.429 28.818 109.795 28.782 110.155 28.71C110.515 28.638 110.827 28.548 111.091 28.44L111.397 30.24C111.157 30.36 110.791 30.468 110.299 30.564C109.819 30.66 109.321 30.708 108.805 30.708C108.001 30.708 107.299 30.588 106.699 30.348C106.111 30.096 105.619 29.754 105.223 29.322C104.839 28.878 104.551 28.356 104.359 27.756C104.167 27.144 104.071 26.484 104.071 25.776Z" fill="#373D46"/>
<path d="M120.404 22.878H117.362V30.474H115.184V22.878H112.16V21.06H120.404V22.878Z" fill="#373D46"/>
<path d="M130.275 21.06V30.474H128.115C128.115 29.79 128.115 29.112 128.115 28.44C128.127 27.768 128.133 27.144 128.133 26.568C128.145 25.992 128.151 25.494 128.151 25.074C128.163 24.642 128.169 24.324 128.169 24.12C127.809 24.588 127.437 25.104 127.053 25.668C126.669 26.232 126.285 26.796 125.901 27.36C125.529 27.924 125.175 28.476 124.839 29.016C124.503 29.556 124.209 30.042 123.957 30.474H122.031V21.06H124.173C124.173 21.756 124.167 22.422 124.155 23.058C124.155 23.682 124.155 24.252 124.155 24.768C124.155 25.284 124.149 25.734 124.137 26.118C124.137 26.502 124.137 26.796 124.137 27C124.473 26.484 124.821 25.956 125.181 25.416C125.541 24.864 125.901 24.33 126.261 23.814C126.633 23.286 126.999 22.788 127.359 22.32C127.719 21.852 128.067 21.432 128.403 21.06H130.275Z" fill="#373D46"/>
<path d="M0 4C0 1.79086 1.79086 0 4 0H48V48H4C1.79086 48 0 46.2091 0 44V4Z" fill="#4290FC"/>
<path d="M26.2038 27.4322C26.2038 26.9407 26.0934 26.5085 25.8726 26.1356C25.6518 25.7458 25.2696 25.4237 24.7261 25.1695C24.1826 24.9153 23.4522 24.7203 22.535 24.5847C21.6178 24.4492 20.4628 24.3814 19.0701 24.3814C19.2569 22.8051 19.4098 21.2034 19.5287 19.5763C19.6476 17.9492 19.741 16.4237 19.8089 15H29.3631V18.178H22.9936C22.9597 18.7881 22.9172 19.3814 22.8662 19.9576C22.8323 20.5169 22.7898 21.0085 22.7389 21.4322C25.2187 21.6017 27.0446 22.1864 28.2166 23.1864C29.4055 24.1695 30 25.5424 30 27.3051C30 28.1186 29.8556 28.8729 29.5669 29.5678C29.2781 30.2627 28.845 30.8644 28.2675 31.3729C27.69 31.8814 26.9597 32.2797 26.0764 32.5678C25.2102 32.8559 24.1911 33 23.0191 33C22.5605 33 22.0764 32.9661 21.5669 32.8983C21.0743 32.8475 20.5902 32.7712 20.1146 32.6695C19.6561 32.5847 19.2399 32.4915 18.8662 32.3898C18.4926 32.2881 18.2038 32.1864 18 32.0847L18.6879 28.9576C19.1125 29.1441 19.673 29.3305 20.3694 29.5169C21.0658 29.6864 21.8981 29.7712 22.8662 29.7712C24.0382 29.7712 24.8875 29.5424 25.414 29.0847C25.9406 28.6102 26.2038 28.0593 26.2038 27.4322Z" fill="white"/>
</svg>
