<svg width="48" height="48" viewBox="0 0 48 48" fill="none" xmlns="http://www.w3.org/2000/svg">
<path d="M0 8C0 4.22876 0 2.34315 1.17157 1.17157C2.34315 0 4.22876 0 8 0H40C43.7712 0 45.6569 0 46.8284 1.17157C48 2.34315 48 4.22876 48 8V40C48 43.7712 48 45.6569 46.8284 46.8284C45.6569 48 43.7712 48 40 48H8C4.22876 48 2.34315 48 1.17157 46.8284C0 45.6569 0 43.7712 0 40V8Z" fill="#F7F7F8"/>
<path d="M15 18C15 17.4477 15.4477 17 16 17H32C32.5523 17 33 17.4477 33 18C33 18.5523 32.5523 19 32 19H16C15.4477 19 15 18.5523 15 18Z" fill="#51565E"/>
<path d="M15 24C15 23.4477 15.4477 23 16 23H32C32.5523 23 33 23.4477 33 24C33 24.5523 32.5523 25 32 25H16C15.4477 25 15 24.5523 15 24Z" fill="#51565E"/>
<path d="M15 30C15 29.4477 15.4477 29 16 29H32C32.5523 29 33 29.4477 33 30C33 30.5523 32.5523 31 32 31H16C15.4477 31 15 30.5523 15 30Z" fill="#51565E"/>
</svg>
