<svg width="16" height="16" viewBox="0 0 16 16" fill="none" xmlns="http://www.w3.org/2000/svg">
<path fill-rule="evenodd" clip-rule="evenodd" d="M2.86377 2.86334C2.38736 3.33975 2.08344 4.11528 2.08344 5.33301V8.66634C2.08344 10.2683 2.41044 10.9871 2.82731 11.3519C3.26897 11.7384 4.01336 11.9163 5.33344 11.9163H5.66677C5.90458 11.9163 6.1264 11.9896 6.29405 12.0727C6.45902 12.1545 6.65639 12.2879 6.80253 12.4862L7.8001 13.8163C7.89927 13.9486 7.97882 13.9563 8.0001 13.9563C8.02139 13.9563 8.10094 13.9486 8.2001 13.8163L9.20297 12.4792C9.4693 12.1287 9.88884 11.9163 10.3334 11.9163H10.6668C11.8845 11.9163 12.66 11.6124 13.1364 11.136C13.6128 10.6596 13.9168 9.88407 13.9168 8.66634V5.33301C13.9168 4.11528 13.6128 3.33975 13.1364 2.86334C12.66 2.38693 11.8845 2.08301 10.6668 2.08301H5.33344C4.11571 2.08301 3.34017 2.38693 2.86377 2.86334ZM1.8031 1.80268C2.66003 0.945751 3.88449 0.583008 5.33344 0.583008H10.6668C12.1157 0.583008 13.3402 0.945751 14.1971 1.80268C15.054 2.6596 15.4168 3.88407 15.4168 5.33301V8.66634C15.4168 10.1153 15.054 11.3397 14.1971 12.1967C13.3402 13.0536 12.1157 13.4163 10.6668 13.4163H10.3751L9.4001 14.7163C9.05927 15.1708 8.55882 15.4563 8.0001 15.4563C7.44139 15.4563 6.94094 15.1708 6.6001 14.7163L5.6251 13.4163H5.33344C3.98684 13.4163 2.73124 13.261 1.83956 12.4808C0.923101 11.6789 0.583435 10.3977 0.583435 8.66634V5.33301C0.583435 3.88407 0.946178 2.6596 1.8031 1.80268Z" fill="#CDCFD1"/>
<path fill-rule="evenodd" clip-rule="evenodd" d="M9.6644 7.33301C9.6644 6.78072 10.1121 6.33301 10.6644 6.33301H10.6704C11.2227 6.33301 11.6704 6.78072 11.6704 7.33301C11.6704 7.88529 11.2227 8.33301 10.6704 8.33301H10.6644C10.1121 8.33301 9.6644 7.88529 9.6644 7.33301Z" fill="#CDCFD1"/>
<path fill-rule="evenodd" clip-rule="evenodd" d="M6.99709 7.33301C6.99709 6.78072 7.44481 6.33301 7.99709 6.33301H8.00308C8.55536 6.33301 9.00308 6.78072 9.00308 7.33301C9.00308 7.88529 8.55536 8.33301 8.00308 8.33301H7.99709C7.44481 8.33301 6.99709 7.88529 6.99709 7.33301Z" fill="#CDCFD1"/>
<path fill-rule="evenodd" clip-rule="evenodd" d="M4.32977 7.33301C4.32977 6.78072 4.77748 6.33301 5.32977 6.33301H5.33576C5.88804 6.33301 6.33576 6.78072 6.33576 7.33301C6.33576 7.88529 5.88804 8.33301 5.33576 8.33301H5.32977C4.77748 8.33301 4.32977 7.88529 4.32977 7.33301Z" fill="#CDCFD1"/>
</svg>
