<svg width="27" height="20" viewBox="0 0 27 20" fill="none" xmlns="http://www.w3.org/2000/svg">
<path d="M0 20C0 19.3889 0 18.8056 0 18.25C0 17.6389 0.0277778 17.0556 0.0833335 16.5C0.305556 13.6111 0.944445 10.75 2 7.91667C3.05556 5.08334 4.33333 2.44445 5.83333 0L11.8333 1.91667C10.6667 4.36111 9.77778 6.83334 9.16667 9.33334C8.61111 11.8333 8.33333 14.1667 8.33333 16.3333C8.33333 16.8889 8.33333 17.5 8.33333 18.1667C8.38889 18.7778 8.44445 19.3889 8.5 20H0ZM15.1667 20C15.1667 19.3889 15.1667 18.8056 15.1667 18.25C15.1667 17.6389 15.1944 17.0556 15.25 16.5C15.4722 13.6111 16.1111 10.75 17.1667 7.91667C18.2222 5.08334 19.5 2.44445 21 0L27 1.91667C25.8333 4.36111 24.9444 6.83334 24.3333 9.33334C23.7778 11.8333 23.5 14.1667 23.5 16.3333C23.5 16.8889 23.5 17.5 23.5 18.1667C23.5556 18.7778 23.6111 19.3889 23.6667 20H15.1667Z" fill="#DADBDD"/>
</svg>
