<svg width="27" height="20" viewBox="0 0 27 20" fill="none" xmlns="http://www.w3.org/2000/svg">
<path d="M27 0C27 0.611111 27 1.19444 27 1.75C27 2.36111 26.9722 2.94444 26.9167 3.5C26.6944 6.38889 26.0556 9.25 25 12.0833C23.9444 14.9167 22.6667 17.5556 21.1667 20L15.1667 18.0833C16.3333 15.6389 17.2222 13.1667 17.8333 10.6667C18.3889 8.16667 18.6667 5.83333 18.6667 3.66666C18.6667 3.11111 18.6667 2.5 18.6667 1.83333C18.6111 1.22222 18.5556 0.61111 18.5 -7.43094e-07L27 0ZM11.8333 -1.32591e-06C11.8333 0.611109 11.8333 1.19444 11.8333 1.75C11.8333 2.36111 11.8056 2.94444 11.75 3.5C11.5278 6.38889 10.8889 9.25 9.83333 12.0833C8.77778 14.9167 7.5 17.5556 6 20L1.6756e-07 18.0833C1.16667 15.6389 2.05555 13.1667 2.66666 10.6667C3.22222 8.16666 3.5 5.83333 3.5 3.66666C3.5 3.11111 3.5 2.5 3.5 1.83333C3.44444 1.22222 3.38889 0.611109 3.33333 -2.06901e-06L11.8333 -1.32591e-06Z" fill="#DADBDD"/>
</svg>
