<svg width="48" height="48" viewBox="0 0 48 48" fill="none" xmlns="http://www.w3.org/2000/svg">
<path d="M0 8C0 4.22876 0 2.34315 1.17157 1.17157C2.34315 0 4.22876 0 8 0H40C43.7712 0 45.6569 0 46.8284 1.17157C48 2.34315 48 4.22876 48 8V40C48 43.7712 48 45.6569 46.8284 46.8284C45.6569 48 43.7712 48 40 48H8C4.22876 48 2.34315 48 1.17157 46.8284C0 45.6569 0 43.7712 0 40V8Z" fill="#F7F7F8"/>
<path fill-rule="evenodd" clip-rule="evenodd" d="M27.5013 28.7022C26.1663 29.7746 24.4706 30.4163 22.625 30.4163C18.3218 30.4163 14.8333 26.9279 14.8333 22.6247C14.8333 18.3215 18.3218 14.833 22.625 14.833C26.9282 14.833 30.4166 18.3215 30.4166 22.6247C30.4166 24.4703 29.7749 26.166 28.7025 27.501C28.7104 27.5083 28.7183 27.5159 28.726 27.5236L32.3927 31.1903C32.7246 31.5222 32.7246 32.0604 32.3927 32.3924C32.0607 32.7243 31.5225 32.7243 31.1906 32.3924L27.5239 28.7257C27.5162 28.718 27.5086 28.7101 27.5013 28.7022ZM28.7166 22.6247C28.7166 25.989 25.9893 28.7163 22.625 28.7163C19.2606 28.7163 16.5333 25.989 16.5333 22.6247C16.5333 19.2603 19.2606 16.533 22.625 16.533C25.9893 16.533 28.7166 19.2603 28.7166 22.6247Z" fill="#51565E"/>
</svg>
