<svg width="30" height="30" viewBox="0 0 30 30" fill="none" xmlns="http://www.w3.org/2000/svg">
<path d="M27.5 15C27.5 8.1125 21.8875 2.5 15 2.5C8.1125 2.5 2.5 8.1125 2.5 15C2.5 21.8875 8.1125 27.5 15 27.5C21.8875 27.5 27.5 21.8875 27.5 15ZM11.25 17.2375C10.8875 17.6 10.2875 17.6 9.925 17.2375C9.7375 17.05 9.65 16.8125 9.65 16.575C9.65 16.3375 9.7375 16.1 9.925 15.9125L14.3375 11.5C14.7 11.1375 15.3 11.1375 15.6625 11.5L20.075 15.9125C20.4375 16.275 20.4375 16.875 20.075 17.2375C19.7125 17.6 19.1125 17.6 18.75 17.2375L15 13.4875L11.25 17.2375Z" fill="white"/>
</svg>
